# xmcd
#
# Track frame offsets:
# 150
# 20755
# 35038
# 38903
# 66270
# 88547
# 112969
# 132050
# 169034
# 179222
# 187304
# 208186
# 220236
# 230307
# 234483
# 243228
# 253285
#
# Disc length: 3481 seconds
#
#
# Revision: 2
# Processed by: cddbd v1.5.1PL2 Copyright (c) Steve Scherf et al.
# Submitted via: FreeRIP 2.942 
#
DISCID=fe0d9711
DTITLE=Cantos do Hin Lit CNBB - Natal - Liturgia V
DYEAR=2001
DGENRE=Religioso
TTITLE0=Gloria ao Senhor-Entrada-Reg Veloso
TTITLE1=Resplandeceu a luz - Salmo resp 96
TTITLE2=Aleluia Eu vos trago a boa nova-Aclamacao
TTITLE3=Cristaos Vinde todos - Ofertorio
TTITLE4=Da Cepa Brotou a Rama - Comunhao - Reg. Veloso
TTITLE5=Nasceu-nos hoje um menino - Entrada-R Veloso
TTITLE6=Hoje uma luz brilhou para nos - Sl resp
TTITLE7=Hino ao Verbo de Deus-Comunhao-Reg Vel
TTITLE8=Felizes os que temem o senhor-Sl resp
TTITLE9=Nas terras do oriente-Ofertorio
TTITLE10=Deus de todos-Sl resp 67-Geraldo Leite
TTITLE11=Eis que vem o Senhor-Entrada - Sl 72-Joel Postma
TTITLE12=Eis que vem o Senhor-Sl Resp 72
TTITLE13=Aleluia pois nos vimos sua estrela-Aclama
TTITLE14=Vimos sua estrela-Comunh-Geraldo Leite
TTITLE15=Nas aguas do Jordao-Sl rep 29
TTITLE16=Cantai ao senhor um canto novo-Ofertorio-Sl 96
EXTD=YEAR: 2001
EXTT0=
EXTT1=
EXTT2=
EXTT3=
EXTT4=
EXTT5=
EXTT6=
EXTT7=
EXTT8=
EXTT9=
EXTT10=
EXTT11=
EXTT12=
EXTT13=
EXTT14=
EXTT15=
EXTT16=
PLAYORDER=
